<svg width="336" height="210" viewBox="0 0 336 210" fill="none" xmlns="http://www.w3.org/2000/svg">
<path d="M40.6076 172V154.72H54.6116V172H51.7196V157.432H43.4996V172H40.6076ZM57.9748 172V154.72H65.1148C65.2828 154.72 65.4988 154.728 65.7628 154.744C66.0268 154.752 66.2708 154.776 66.4948 154.816C67.4948 154.968 68.3188 155.3 68.9668 155.812C69.6228 156.324 70.1068 156.972 70.4188 157.756C70.7388 158.532 70.8988 159.396 70.8988 160.348C70.8988 161.292 70.7388 162.156 70.4188 162.94C70.0988 163.716 69.6108 164.36 68.9548 164.872C68.3068 165.384 67.4868 165.716 66.4948 165.868C66.2708 165.9 66.0228 165.924 65.7508 165.94C65.4868 165.956 65.2748 165.964 65.1148 165.964H60.8668V172H57.9748ZM60.8668 163.264H64.9948C65.1548 163.264 65.3348 163.256 65.5348 163.24C65.7348 163.224 65.9188 163.192 66.0868 163.144C66.5668 163.024 66.9428 162.812 67.2148 162.508C67.4948 162.204 67.6908 161.86 67.8028 161.476C67.9228 161.092 67.9828 160.716 67.9828 160.348C67.9828 159.98 67.9228 159.604 67.8028 159.22C67.6908 158.828 67.4948 158.48 67.2148 158.176C66.9428 157.872 66.5668 157.66 66.0868 157.54C65.9188 157.492 65.7348 157.464 65.5348 157.456C65.3348 157.44 65.1548 157.432 64.9948 157.432H60.8668V163.264ZM80.6109 172.36C78.8829 172.36 77.4029 171.984 76.1709 171.232C74.9389 170.472 73.9909 169.416 73.3269 168.064C72.6709 166.712 72.3429 165.144 72.3429 163.36C72.3429 161.576 72.6709 160.008 73.3269 158.656C73.9909 157.304 74.9389 156.252 76.1709 155.5C77.4029 154.74 78.8829 154.36 80.6109 154.36C82.3389 154.36 83.8189 154.74 85.0509 155.5C86.2909 156.252 87.2389 157.304 87.8949 158.656C88.5589 160.008 88.8909 161.576 88.8909 163.36C88.8909 165.144 88.5589 166.712 87.8949 168.064C87.2389 169.416 86.2909 170.472 85.0509 171.232C83.8189 171.984 82.3389 172.36 80.6109 172.36ZM80.6109 169.636C81.7709 169.644 82.7349 169.388 83.5029 168.868C84.2789 168.348 84.8589 167.616 85.2429 166.672C85.6349 165.728 85.8309 164.624 85.8309 163.36C85.8309 162.096 85.6349 161 85.2429 160.072C84.8589 159.136 84.2789 158.408 83.5029 157.888C82.7349 157.368 81.7709 157.1 80.6109 157.084C79.4509 157.076 78.4869 157.332 77.7189 157.852C76.9509 158.372 76.3709 159.104 75.9789 160.048C75.5949 160.992 75.4029 162.096 75.4029 163.36C75.4029 164.624 75.5949 165.724 75.9789 166.66C76.3629 167.588 76.9389 168.312 77.7069 168.832C78.4829 169.352 79.4509 169.62 80.6109 169.636ZM98.5875 172.36C96.8595 172.36 95.3795 171.984 94.1475 171.232C92.9155 170.472 91.9675 169.416 91.3035 168.064C90.6475 166.712 90.3195 165.144 90.3195 163.36C90.3195 161.576 90.6475 160.008 91.3035 158.656C91.9675 157.304 92.9155 156.252 94.1475 155.5C95.3795 154.74 96.8595 154.36 98.5875 154.36C100.579 154.36 102.239 154.86 103.567 155.86C104.895 156.852 105.827 158.192 106.363 159.88L103.447 160.684C103.111 159.556 102.539 158.676 101.731 158.044C100.923 157.404 99.8755 157.084 98.5875 157.084C97.4275 157.084 96.4595 157.344 95.6835 157.864C94.9155 158.384 94.3355 159.116 93.9435 160.06C93.5595 160.996 93.3635 162.096 93.3555 163.36C93.3555 164.624 93.5475 165.728 93.9315 166.672C94.3235 167.608 94.9075 168.336 95.6835 168.856C96.4595 169.376 97.4275 169.636 98.5875 169.636C99.8755 169.636 100.923 169.316 101.731 168.676C102.539 168.036 103.111 167.156 103.447 166.036L106.363 166.84C105.827 168.528 104.895 169.872 103.567 170.872C102.239 171.864 100.579 172.36 98.5875 172.36ZM113.15 172V157.432H107.558V154.72H121.634V157.432H116.042V172H113.15ZM130.861 172.36C129.133 172.36 127.653 171.984 126.421 171.232C125.189 170.472 124.241 169.416 123.577 168.064C122.921 166.712 122.593 165.144 122.593 163.36C122.593 161.576 122.921 160.008 123.577 158.656C124.241 157.304 125.189 156.252 126.421 155.5C127.653 154.74 129.133 154.36 130.861 154.36C132.589 154.36 134.069 154.74 135.301 155.5C136.541 156.252 137.489 157.304 138.145 158.656C138.809 160.008 139.141 161.576 139.141 163.36C139.141 165.144 138.809 166.712 138.145 168.064C137.489 169.416 136.541 170.472 135.301 171.232C134.069 171.984 132.589 172.36 130.861 172.36ZM130.861 169.636C132.021 169.644 132.985 169.388 133.753 168.868C134.529 168.348 135.109 167.616 135.493 166.672C135.885 165.728 136.081 164.624 136.081 163.36C136.081 162.096 135.885 161 135.493 160.072C135.109 159.136 134.529 158.408 133.753 157.888C132.985 157.368 132.021 157.1 130.861 157.084C129.701 157.076 128.737 157.332 127.969 157.852C127.201 158.372 126.621 159.104 126.229 160.048C125.845 160.992 125.653 162.096 125.653 163.36C125.653 164.624 125.845 165.724 126.229 166.66C126.613 167.588 127.189 168.312 127.957 168.832C128.733 169.352 129.701 169.62 130.861 169.636ZM153.642 172.36C151.914 172.36 150.434 171.984 149.202 171.232C147.97 170.472 147.022 169.416 146.358 168.064C145.702 166.712 145.374 165.144 145.374 163.36C145.374 161.576 145.702 160.008 146.358 158.656C147.022 157.304 147.97 156.252 149.202 155.5C150.434 154.74 151.914 154.36 153.642 154.36C155.37 154.36 156.85 154.74 158.082 155.5C159.322 156.252 160.27 157.304 160.926 158.656C161.59 160.008 161.922 161.576 161.922 163.36C161.922 165.144 161.59 166.712 160.926 168.064C160.27 169.416 159.322 170.472 158.082 171.232C156.85 171.984 155.37 172.36 153.642 172.36ZM153.642 169.636C154.802 169.644 155.766 169.388 156.534 168.868C157.31 168.348 157.89 167.616 158.274 166.672C158.666 165.728 158.862 164.624 158.862 163.36C158.862 162.096 158.666 161 158.274 160.072C157.89 159.136 157.31 158.408 156.534 157.888C155.766 157.368 154.802 157.1 153.642 157.084C152.482 157.076 151.518 157.332 150.75 157.852C149.982 158.372 149.402 159.104 149.01 160.048C148.626 160.992 148.434 162.096 148.434 163.36C148.434 164.624 148.626 165.724 149.01 166.66C149.394 167.588 149.97 168.312 150.738 168.832C151.514 169.352 152.482 169.62 153.642 169.636ZM176.423 172.36C174.695 172.36 173.215 171.984 171.983 171.232C170.751 170.472 169.803 169.416 169.139 168.064C168.483 166.712 168.155 165.144 168.155 163.36C168.155 161.576 168.483 160.008 169.139 158.656C169.803 157.304 170.751 156.252 171.983 155.5C173.215 154.74 174.695 154.36 176.423 154.36C178.415 154.36 180.075 154.86 181.403 155.86C182.731 156.852 183.663 158.192 184.199 159.88L181.283 160.684C180.947 159.556 180.375 158.676 179.567 158.044C178.759 157.404 177.711 157.084 176.423 157.084C175.263 157.084 174.295 157.344 173.519 157.864C172.751 158.384 172.171 159.116 171.779 160.06C171.395 160.996 171.199 162.096 171.191 163.36C171.191 164.624 171.383 165.728 171.767 166.672C172.159 167.608 172.743 168.336 173.519 168.856C174.295 169.376 175.263 169.636 176.423 169.636C177.711 169.636 178.759 169.316 179.567 168.676C180.375 168.036 180.947 167.156 181.283 166.036L184.199 166.84C183.663 168.528 182.731 169.872 181.403 170.872C180.075 171.864 178.415 172.36 176.423 172.36ZM185.165 172V169.576C185.549 169.6 185.873 169.572 186.137 169.492C186.401 169.404 186.621 169.24 186.797 169C186.981 168.752 187.141 168.404 187.277 167.956C187.413 167.5 187.545 166.928 187.673 166.24C187.857 165.256 188.009 164.232 188.129 163.168C188.257 162.096 188.365 161.044 188.453 160.012C188.541 158.972 188.609 157.996 188.657 157.084C188.705 156.172 188.745 155.384 188.777 154.72H200.345V172H197.453V157.432H191.453C191.413 157.968 191.365 158.616 191.309 159.376C191.261 160.128 191.193 160.944 191.105 161.824C191.025 162.704 190.921 163.616 190.793 164.56C190.673 165.504 190.525 166.432 190.349 167.344C190.189 168.176 189.997 168.924 189.773 169.588C189.549 170.244 189.249 170.788 188.873 171.22C188.505 171.644 188.021 171.928 187.421 172.072C186.829 172.216 186.077 172.192 185.165 172ZM211.017 172.36C209.289 172.36 207.809 171.984 206.577 171.232C205.345 170.472 204.397 169.416 203.733 168.064C203.077 166.712 202.749 165.144 202.749 163.36C202.749 161.576 203.077 160.008 203.733 158.656C204.397 157.304 205.345 156.252 206.577 155.5C207.809 154.74 209.289 154.36 211.017 154.36C212.745 154.36 214.225 154.74 215.457 155.5C216.697 156.252 217.645 157.304 218.301 158.656C218.965 160.008 219.297 161.576 219.297 163.36C219.297 165.144 218.965 166.712 218.301 168.064C217.645 169.416 216.697 170.472 215.457 171.232C214.225 171.984 212.745 172.36 211.017 172.36ZM211.017 169.636C212.177 169.644 213.141 169.388 213.909 168.868C214.685 168.348 215.265 167.616 215.649 166.672C216.041 165.728 216.237 164.624 216.237 163.36C216.237 162.096 216.041 161 215.649 160.072C215.265 159.136 214.685 158.408 213.909 157.888C213.141 157.368 212.177 157.1 211.017 157.084C209.857 157.076 208.893 157.332 208.125 157.852C207.357 158.372 206.777 159.104 206.385 160.048C206.001 160.992 205.809 162.096 205.809 163.36C205.809 164.624 206.001 165.724 206.385 166.66C206.769 167.588 207.345 168.312 208.113 168.832C208.889 169.352 209.857 169.62 211.017 169.636ZM219.05 172L225.554 163.192L219.554 154.72H223.01L228.35 162.532V154.72H231.242V162.532L236.582 154.72H240.038L234.038 163.192L240.542 172H236.978L231.242 164.14V172H228.35V164.14L222.626 172H219.05ZM242.451 172V154.72H245.343V161.992H253.527V154.72H256.407V172H253.527V164.704H245.343V172H242.451ZM267.08 172.36C265.352 172.36 263.872 171.984 262.64 171.232C261.408 170.472 260.46 169.416 259.796 168.064C259.14 166.712 258.812 165.144 258.812 163.36C258.812 161.576 259.14 160.008 259.796 158.656C260.46 157.304 261.408 156.252 262.64 155.5C263.872 154.74 265.352 154.36 267.08 154.36C268.808 154.36 270.288 154.74 271.52 155.5C272.76 156.252 273.708 157.304 274.364 158.656C275.028 160.008 275.36 161.576 275.36 163.36C275.36 165.144 275.028 166.712 274.364 168.064C273.708 169.416 272.76 170.472 271.52 171.232C270.288 171.984 268.808 172.36 267.08 172.36ZM267.08 169.636C268.24 169.644 269.204 169.388 269.972 168.868C270.748 168.348 271.328 167.616 271.712 166.672C272.104 165.728 272.3 164.624 272.3 163.36C272.3 162.096 272.104 161 271.712 160.072C271.328 159.136 270.748 158.408 269.972 157.888C269.204 157.368 268.24 157.1 267.08 157.084C265.92 157.076 264.956 157.332 264.188 157.852C263.42 158.372 262.84 159.104 262.448 160.048C262.064 160.992 261.872 162.096 261.872 163.36C261.872 164.624 262.064 165.724 262.448 166.66C262.832 167.588 263.408 168.312 264.176 168.832C264.952 169.352 265.92 169.62 267.08 169.636ZM277.748 172V154.72H280.352L286.328 166.96L292.304 154.72H294.908V172H292.208V160.924L286.904 172H285.752L280.46 160.924V172H277.748Z" fill="#7E39A8"/>
<path d="M40.6076 172V154.72H54.6116V172H51.7196V157.432H43.4996V172H40.6076ZM57.9748 172V154.72H65.1148C65.2828 154.72 65.4988 154.728 65.7628 154.744C66.0268 154.752 66.2708 154.776 66.4948 154.816C67.4948 154.968 68.3188 155.3 68.9668 155.812C69.6228 156.324 70.1068 156.972 70.4188 157.756C70.7388 158.532 70.8988 159.396 70.8988 160.348C70.8988 161.292 70.7388 162.156 70.4188 162.94C70.0988 163.716 69.6108 164.36 68.9548 164.872C68.3068 165.384 67.4868 165.716 66.4948 165.868C66.2708 165.9 66.0228 165.924 65.7508 165.94C65.4868 165.956 65.2748 165.964 65.1148 165.964H60.8668V172H57.9748ZM60.8668 163.264H64.9948C65.1548 163.264 65.3348 163.256 65.5348 163.24C65.7348 163.224 65.9188 163.192 66.0868 163.144C66.5668 163.024 66.9428 162.812 67.2148 162.508C67.4948 162.204 67.6908 161.86 67.8028 161.476C67.9228 161.092 67.9828 160.716 67.9828 160.348C67.9828 159.98 67.9228 159.604 67.8028 159.22C67.6908 158.828 67.4948 158.48 67.2148 158.176C66.9428 157.872 66.5668 157.66 66.0868 157.54C65.9188 157.492 65.7348 157.464 65.5348 157.456C65.3348 157.44 65.1548 157.432 64.9948 157.432H60.8668V163.264ZM80.6109 172.36C78.8829 172.36 77.4029 171.984 76.1709 171.232C74.9389 170.472 73.9909 169.416 73.3269 168.064C72.6709 166.712 72.3429 165.144 72.3429 163.36C72.3429 161.576 72.6709 160.008 73.3269 158.656C73.9909 157.304 74.9389 156.252 76.1709 155.5C77.4029 154.74 78.8829 154.36 80.6109 154.36C82.3389 154.36 83.8189 154.74 85.0509 155.5C86.2909 156.252 87.2389 157.304 87.8949 158.656C88.5589 160.008 88.8909 161.576 88.8909 163.36C88.8909 165.144 88.5589 166.712 87.8949 168.064C87.2389 169.416 86.2909 170.472 85.0509 171.232C83.8189 171.984 82.3389 172.36 80.6109 172.36ZM80.6109 169.636C81.7709 169.644 82.7349 169.388 83.5029 168.868C84.2789 168.348 84.8589 167.616 85.2429 166.672C85.6349 165.728 85.8309 164.624 85.8309 163.36C85.8309 162.096 85.6349 161 85.2429 160.072C84.8589 159.136 84.2789 158.408 83.5029 157.888C82.7349 157.368 81.7709 157.1 80.6109 157.084C79.4509 157.076 78.4869 157.332 77.7189 157.852C76.9509 158.372 76.3709 159.104 75.9789 160.048C75.5949 160.992 75.4029 162.096 75.4029 163.36C75.4029 164.624 75.5949 165.724 75.9789 166.66C76.3629 167.588 76.9389 168.312 77.7069 168.832C78.4829 169.352 79.4509 169.62 80.6109 169.636ZM98.5875 172.36C96.8595 172.36 95.3795 171.984 94.1475 171.232C92.9155 170.472 91.9675 169.416 91.3035 168.064C90.6475 166.712 90.3195 165.144 90.3195 163.36C90.3195 161.576 90.6475 160.008 91.3035 158.656C91.9675 157.304 92.9155 156.252 94.1475 155.5C95.3795 154.74 96.8595 154.36 98.5875 154.36C100.579 154.36 102.239 154.86 103.567 155.86C104.895 156.852 105.827 158.192 106.363 159.88L103.447 160.684C103.111 159.556 102.539 158.676 101.731 158.044C100.923 157.404 99.8755 157.084 98.5875 157.084C97.4275 157.084 96.4595 157.344 95.6835 157.864C94.9155 158.384 94.3355 159.116 93.9435 160.06C93.5595 160.996 93.3635 162.096 93.3555 163.36C93.3555 164.624 93.5475 165.728 93.9315 166.672C94.3235 167.608 94.9075 168.336 95.6835 168.856C96.4595 169.376 97.4275 169.636 98.5875 169.636C99.8755 169.636 100.923 169.316 101.731 168.676C102.539 168.036 103.111 167.156 103.447 166.036L106.363 166.84C105.827 168.528 104.895 169.872 103.567 170.872C102.239 171.864 100.579 172.36 98.5875 172.36ZM113.15 172V157.432H107.558V154.72H121.634V157.432H116.042V172H113.15ZM130.861 172.36C129.133 172.36 127.653 171.984 126.421 171.232C125.189 170.472 124.241 169.416 123.577 168.064C122.921 166.712 122.593 165.144 122.593 163.36C122.593 161.576 122.921 160.008 123.577 158.656C124.241 157.304 125.189 156.252 126.421 155.5C127.653 154.74 129.133 154.36 130.861 154.36C132.589 154.36 134.069 154.74 135.301 155.5C136.541 156.252 137.489 157.304 138.145 158.656C138.809 160.008 139.141 161.576 139.141 163.36C139.141 165.144 138.809 166.712 138.145 168.064C137.489 169.416 136.541 170.472 135.301 171.232C134.069 171.984 132.589 172.36 130.861 172.36ZM130.861 169.636C132.021 169.644 132.985 169.388 133.753 168.868C134.529 168.348 135.109 167.616 135.493 166.672C135.885 165.728 136.081 164.624 136.081 163.36C136.081 162.096 135.885 161 135.493 160.072C135.109 159.136 134.529 158.408 133.753 157.888C132.985 157.368 132.021 157.1 130.861 157.084C129.701 157.076 128.737 157.332 127.969 157.852C127.201 158.372 126.621 159.104 126.229 160.048C125.845 160.992 125.653 162.096 125.653 163.36C125.653 164.624 125.845 165.724 126.229 166.66C126.613 167.588 127.189 168.312 127.957 168.832C128.733 169.352 129.701 169.62 130.861 169.636ZM153.642 172.36C151.914 172.36 150.434 171.984 149.202 171.232C147.97 170.472 147.022 169.416 146.358 168.064C145.702 166.712 145.374 165.144 145.374 163.36C145.374 161.576 145.702 160.008 146.358 158.656C147.022 157.304 147.97 156.252 149.202 155.5C150.434 154.74 151.914 154.36 153.642 154.36C155.37 154.36 156.85 154.74 158.082 155.5C159.322 156.252 160.27 157.304 160.926 158.656C161.59 160.008 161.922 161.576 161.922 163.36C161.922 165.144 161.59 166.712 160.926 168.064C160.27 169.416 159.322 170.472 158.082 171.232C156.85 171.984 155.37 172.36 153.642 172.36ZM153.642 169.636C154.802 169.644 155.766 169.388 156.534 168.868C157.31 168.348 157.89 167.616 158.274 166.672C158.666 165.728 158.862 164.624 158.862 163.36C158.862 162.096 158.666 161 158.274 160.072C157.89 159.136 157.31 158.408 156.534 157.888C155.766 157.368 154.802 157.1 153.642 157.084C152.482 157.076 151.518 157.332 150.75 157.852C149.982 158.372 149.402 159.104 149.01 160.048C148.626 160.992 148.434 162.096 148.434 163.36C148.434 164.624 148.626 165.724 149.01 166.66C149.394 167.588 149.97 168.312 150.738 168.832C151.514 169.352 152.482 169.62 153.642 169.636ZM176.423 172.36C174.695 172.36 173.215 171.984 171.983 171.232C170.751 170.472 169.803 169.416 169.139 168.064C168.483 166.712 168.155 165.144 168.155 163.36C168.155 161.576 168.483 160.008 169.139 158.656C169.803 157.304 170.751 156.252 171.983 155.5C173.215 154.74 174.695 154.36 176.423 154.36C178.415 154.36 180.075 154.86 181.403 155.86C182.731 156.852 183.663 158.192 184.199 159.88L181.283 160.684C180.947 159.556 180.375 158.676 179.567 158.044C178.759 157.404 177.711 157.084 176.423 157.084C175.263 157.084 174.295 157.344 173.519 157.864C172.751 158.384 172.171 159.116 171.779 160.06C171.395 160.996 171.199 162.096 171.191 163.36C171.191 164.624 171.383 165.728 171.767 166.672C172.159 167.608 172.743 168.336 173.519 168.856C174.295 169.376 175.263 169.636 176.423 169.636C177.711 169.636 178.759 169.316 179.567 168.676C180.375 168.036 180.947 167.156 181.283 166.036L184.199 166.84C183.663 168.528 182.731 169.872 181.403 170.872C180.075 171.864 178.415 172.36 176.423 172.36ZM185.165 172V169.576C185.549 169.6 185.873 169.572 186.137 169.492C186.401 169.404 186.621 169.24 186.797 169C186.981 168.752 187.141 168.404 187.277 167.956C187.413 167.5 187.545 166.928 187.673 166.24C187.857 165.256 188.009 164.232 188.129 163.168C188.257 162.096 188.365 161.044 188.453 160.012C188.541 158.972 188.609 157.996 188.657 157.084C188.705 156.172 188.745 155.384 188.777 154.72H200.345V172H197.453V157.432H191.453C191.413 157.968 191.365 158.616 191.309 159.376C191.261 160.128 191.193 160.944 191.105 161.824C191.025 162.704 190.921 163.616 190.793 164.56C190.673 165.504 190.525 166.432 190.349 167.344C190.189 168.176 189.997 168.924 189.773 169.588C189.549 170.244 189.249 170.788 188.873 171.22C188.505 171.644 188.021 171.928 187.421 172.072C186.829 172.216 186.077 172.192 185.165 172ZM211.017 172.36C209.289 172.36 207.809 171.984 206.577 171.232C205.345 170.472 204.397 169.416 203.733 168.064C203.077 166.712 202.749 165.144 202.749 163.36C202.749 161.576 203.077 160.008 203.733 158.656C204.397 157.304 205.345 156.252 206.577 155.5C207.809 154.74 209.289 154.36 211.017 154.36C212.745 154.36 214.225 154.74 215.457 155.5C216.697 156.252 217.645 157.304 218.301 158.656C218.965 160.008 219.297 161.576 219.297 163.36C219.297 165.144 218.965 166.712 218.301 168.064C217.645 169.416 216.697 170.472 215.457 171.232C214.225 171.984 212.745 172.36 211.017 172.36ZM211.017 169.636C212.177 169.644 213.141 169.388 213.909 168.868C214.685 168.348 215.265 167.616 215.649 166.672C216.041 165.728 216.237 164.624 216.237 163.36C216.237 162.096 216.041 161 215.649 160.072C215.265 159.136 214.685 158.408 213.909 157.888C213.141 157.368 212.177 157.1 211.017 157.084C209.857 157.076 208.893 157.332 208.125 157.852C207.357 158.372 206.777 159.104 206.385 160.048C206.001 160.992 205.809 162.096 205.809 163.36C205.809 164.624 206.001 165.724 206.385 166.66C206.769 167.588 207.345 168.312 208.113 168.832C208.889 169.352 209.857 169.62 211.017 169.636ZM219.05 172L225.554 163.192L219.554 154.72H223.01L228.35 162.532V154.72H231.242V162.532L236.582 154.72H240.038L234.038 163.192L240.542 172H236.978L231.242 164.14V172H228.35V164.14L222.626 172H219.05ZM242.451 172V154.72H245.343V161.992H253.527V154.72H256.407V172H253.527V164.704H245.343V172H242.451ZM267.08 172.36C265.352 172.36 263.872 171.984 262.64 171.232C261.408 170.472 260.46 169.416 259.796 168.064C259.14 166.712 258.812 165.144 258.812 163.36C258.812 161.576 259.14 160.008 259.796 158.656C260.46 157.304 261.408 156.252 262.64 155.5C263.872 154.74 265.352 154.36 267.08 154.36C268.808 154.36 270.288 154.74 271.52 155.5C272.76 156.252 273.708 157.304 274.364 158.656C275.028 160.008 275.36 161.576 275.36 163.36C275.36 165.144 275.028 166.712 274.364 168.064C273.708 169.416 272.76 170.472 271.52 171.232C270.288 171.984 268.808 172.36 267.08 172.36ZM267.08 169.636C268.24 169.644 269.204 169.388 269.972 168.868C270.748 168.348 271.328 167.616 271.712 166.672C272.104 165.728 272.3 164.624 272.3 163.36C272.3 162.096 272.104 161 271.712 160.072C271.328 159.136 270.748 158.408 269.972 157.888C269.204 157.368 268.24 157.1 267.08 157.084C265.92 157.076 264.956 157.332 264.188 157.852C263.42 158.372 262.84 159.104 262.448 160.048C262.064 160.992 261.872 162.096 261.872 163.36C261.872 164.624 262.064 165.724 262.448 166.66C262.832 167.588 263.408 168.312 264.176 168.832C264.952 169.352 265.92 169.62 267.08 169.636ZM277.748 172V154.72H280.352L286.328 166.96L292.304 154.72H294.908V172H292.208V160.924L286.904 172H285.752L280.46 160.924V172H277.748Z" fill="url(#paint0_linear_76_0)"/>
<path d="M74.1176 148.053C66.7739 148.053 60.2055 146.912 54.4126 144.632C48.6197 142.305 43.7163 138.839 39.7023 134.232C35.6884 129.579 32.6779 123.809 30.6709 116.921L46.818 112.885C48.6426 118.723 51.8583 123.467 56.4652 127.116C61.0722 130.765 66.6142 132.567 73.0913 132.521C77.607 132.43 81.8719 131.541 85.8858 129.853C89.9454 128.165 93.2524 125.565 95.8067 122.053C97.8593 119.453 99.3646 116.671 100.322 113.706C101.28 110.695 101.942 107.594 102.307 104.401H67.4124V88.9377H102.443C101.714 83.3729 100.117 78.4923 97.6541 74.2958C95.191 70.0538 91.884 66.7696 87.7332 64.4434C83.628 62.0715 78.7474 60.9311 73.0913 61.0224C66.3405 61.068 60.6389 62.9381 55.9863 66.6328C51.3337 70.3275 48.1636 75.3221 46.4759 81.6168L29.9867 79.2905C32.4498 68.5258 37.5129 60.2013 45.1759 54.3172C52.839 48.3875 62.4862 45.4226 74.1176 45.4226C83.6508 45.4226 91.8384 47.5892 98.6804 51.9225C105.568 56.2102 110.859 62.2083 114.554 69.917C118.294 77.6256 120.187 86.5658 120.233 96.7376C120.278 106.316 118.477 114.983 114.828 122.737C111.178 130.491 105.887 136.649 98.9541 141.211C92.0664 145.772 83.7876 148.053 74.1176 148.053ZM133.948 146V47.4752H150.437V93.1798L189.778 47.4752H210.031L167.679 95.7797L212.904 146H191.968L150.437 100.022V146H133.948ZM258.869 148.053C249.016 148.053 240.578 145.909 233.553 141.621C226.529 137.288 221.124 131.267 217.338 123.558C213.597 115.85 211.727 106.909 211.727 96.7376C211.727 86.5658 213.597 77.6256 217.338 69.917C221.124 62.2083 226.529 56.2102 233.553 51.9225C240.578 47.5892 249.016 45.4226 258.869 45.4226C268.721 45.4226 277.16 47.5892 284.184 51.9225C291.254 56.2102 296.659 62.2083 300.4 69.917C304.186 77.6256 306.079 86.5658 306.079 96.7376C306.079 106.909 304.186 115.85 300.4 123.558C296.659 131.267 291.254 137.288 284.184 141.621C277.16 145.909 268.721 148.053 258.869 148.053ZM258.869 132.521C265.483 132.567 270.979 131.107 275.358 128.142C279.782 125.178 283.089 121.004 285.279 115.622C287.514 110.239 288.631 103.945 288.631 96.7376C288.631 89.5307 287.514 83.2817 285.279 77.9905C283.089 72.6538 279.782 68.5029 275.358 65.5381C270.979 62.5732 265.483 61.0452 258.869 60.9539C252.255 60.9083 246.758 62.368 242.379 65.3328C238.001 68.2977 234.694 72.4713 232.459 77.8537C230.269 83.2361 229.174 89.5307 229.174 96.7376C229.174 103.945 230.269 110.216 232.459 115.553C234.648 120.844 237.932 124.972 242.311 127.937C246.736 130.902 252.255 132.43 258.869 132.521Z" fill="#7E39A8"/>
<path d="M74.1176 148.053C66.7739 148.053 60.2055 146.912 54.4126 144.632C48.6197 142.305 43.7163 138.839 39.7023 134.232C35.6884 129.579 32.6779 123.809 30.6709 116.921L46.818 112.885C48.6426 118.723 51.8583 123.467 56.4652 127.116C61.0722 130.765 66.6142 132.567 73.0913 132.521C77.607 132.43 81.8719 131.541 85.8858 129.853C89.9454 128.165 93.2524 125.565 95.8067 122.053C97.8593 119.453 99.3646 116.671 100.322 113.706C101.28 110.695 101.942 107.594 102.307 104.401H67.4124V88.9377H102.443C101.714 83.3729 100.117 78.4923 97.6541 74.2958C95.191 70.0538 91.884 66.7696 87.7332 64.4434C83.628 62.0715 78.7474 60.9311 73.0913 61.0224C66.3405 61.068 60.6389 62.9381 55.9863 66.6328C51.3337 70.3275 48.1636 75.3221 46.4759 81.6168L29.9867 79.2905C32.4498 68.5258 37.5129 60.2013 45.1759 54.3172C52.839 48.3875 62.4862 45.4226 74.1176 45.4226C83.6508 45.4226 91.8384 47.5892 98.6804 51.9225C105.568 56.2102 110.859 62.2083 114.554 69.917C118.294 77.6256 120.187 86.5658 120.233 96.7376C120.278 106.316 118.477 114.983 114.828 122.737C111.178 130.491 105.887 136.649 98.9541 141.211C92.0664 145.772 83.7876 148.053 74.1176 148.053ZM133.948 146V47.4752H150.437V93.1798L189.778 47.4752H210.031L167.679 95.7797L212.904 146H191.968L150.437 100.022V146H133.948ZM258.869 148.053C249.016 148.053 240.578 145.909 233.553 141.621C226.529 137.288 221.124 131.267 217.338 123.558C213.597 115.85 211.727 106.909 211.727 96.7376C211.727 86.5658 213.597 77.6256 217.338 69.917C221.124 62.2083 226.529 56.2102 233.553 51.9225C240.578 47.5892 249.016 45.4226 258.869 45.4226C268.721 45.4226 277.16 47.5892 284.184 51.9225C291.254 56.2102 296.659 62.2083 300.4 69.917C304.186 77.6256 306.079 86.5658 306.079 96.7376C306.079 106.909 304.186 115.85 300.4 123.558C296.659 131.267 291.254 137.288 284.184 141.621C277.16 145.909 268.721 148.053 258.869 148.053ZM258.869 132.521C265.483 132.567 270.979 131.107 275.358 128.142C279.782 125.178 283.089 121.004 285.279 115.622C287.514 110.239 288.631 103.945 288.631 96.7376C288.631 89.5307 287.514 83.2817 285.279 77.9905C283.089 72.6538 279.782 68.5029 275.358 65.5381C270.979 62.5732 265.483 61.0452 258.869 60.9539C252.255 60.9083 246.758 62.368 242.379 65.3328C238.001 68.2977 234.694 72.4713 232.459 77.8537C230.269 83.2361 229.174 89.5307 229.174 96.7376C229.174 103.945 230.269 110.216 232.459 115.553C234.648 120.844 237.932 124.972 242.311 127.937C246.736 130.902 252.255 132.43 258.869 132.521Z" fill="url(#paint1_linear_76_0)"/>
<defs>
<linearGradient id="paint0_linear_76_0" x1="45.203" y1="165.351" x2="62.7479" y2="102.968" gradientUnits="userSpaceOnUse">
<stop stop-color="#AB52CE"/>
<stop offset="1" stop-color="#FE8687"/>
</linearGradient>
<linearGradient id="paint1_linear_76_0" x1="36.6545" y1="103.279" x2="206.56" y2="-18.0256" gradientUnits="userSpaceOnUse">
<stop stop-color="#AB52CE"/>
<stop offset="1" stop-color="#FE8687"/>
</linearGradient>
</defs>
</svg>
