<svg width="480" height="493" viewBox="0 0 480 493" fill="none" xmlns="http://www.w3.org/2000/svg">
<g opacity="0.15" clip-path="url(#clip0_30_212)">
<path d="M480 246.171C480 382.568 372.48 493 239.68 493C106.88 493 0 382.568 0 246.171C0 109.775 106.88 0 239.68 0C372.48 0 480 109.775 480 246.171Z" fill="url(#paint0_linear_30_212)"/>
<path d="M200.32 298.757C196.16 298.757 192.32 298.1 188.48 296.785C182.08 294.484 177.28 289.883 174.72 283.967C168 267.534 178.88 252.086 192 244.527C203.84 237.296 224 233.681 239.68 240.583C255.04 247.485 262.08 240.912 264.64 236.31C271.36 225.793 280.96 219.22 290.56 219.22C292.16 219.22 294.08 219.22 295.68 219.548C302.4 219.877 310.4 220.534 314.56 215.276C315.52 213.961 316.8 212.318 318.4 212.975C318.72 212.975 319.68 214.29 319.36 215.604C318.72 218.562 311.68 230.066 303.36 230.066C286.4 230.066 280.96 234.338 277.12 243.541C273.92 250.772 268.16 253.73 262.72 256.688C259.2 258.66 256 260.303 253.12 262.932C251.52 264.576 250.56 266.548 248.96 268.848C245.44 275.093 240.64 283.31 226.24 291.198C217.28 296.128 208.32 298.757 200.32 298.757ZM220.8 239.926C210.56 239.926 200.64 242.884 193.6 247.156C181.76 254.058 171.84 268.191 177.92 282.652C179.84 287.911 184 291.526 189.76 293.498C199.36 297.114 212.48 295.142 224.64 288.24C238.4 280.68 242.88 273.121 246.08 267.205C247.36 264.904 248.96 262.604 250.56 260.632C253.44 257.345 257.28 255.373 260.8 253.401C265.92 250.772 271.04 247.814 273.92 241.569C279.04 229.737 286.72 225.793 303.04 225.793C305.92 225.793 308.8 223.821 311.04 221.192C306.24 223.164 300.16 222.835 295.36 222.506C293.44 222.506 291.84 222.178 290.24 222.178C281.6 222.178 272.96 228.094 266.88 237.625C264.32 241.898 256 251.429 237.76 243.212C232.96 241.24 226.88 239.926 220.8 239.926Z" fill="white"/>
<path d="M119.04 153.486L118.4 152.172C118.08 150.528 118.08 142.64 122.56 140.011C130.24 135.41 131.52 131.794 131.2 126.536C130.88 121.934 132.8 118.648 134.72 115.69C136 113.718 136.96 112.074 137.28 110.102C137.6 109.116 137.6 107.802 137.6 106.158C137.6 102.214 137.6 96.9556 142.72 88.7389C147.2 81.5083 153.28 76.5783 159.68 75.2636C163.52 74.6063 167.36 75.2636 170.24 77.5643C177.92 83.8089 176.96 94.6549 172.8 102.214C168.96 109.116 160 116.676 150.4 117.662C144 118.319 140.48 121.277 140.16 125.878C139.84 133.109 136.64 139.025 131.84 141.983C131.2 142.312 130.24 142.969 129.28 143.298C126.08 144.941 122.56 146.584 121.92 150.2C121.92 151.186 121.6 152.829 120 152.829L119.04 153.486ZM162.56 78.5503C161.92 78.5503 161.28 78.5503 160.32 78.8789C154.88 79.8649 149.44 84.1376 145.6 90.7109C141.12 97.9416 141.12 102.543 141.12 106.487C141.12 108.13 141.12 109.445 140.8 111.088C140.16 113.718 138.88 115.69 137.6 117.662C136 120.291 134.4 122.92 134.72 126.536C135.36 133.766 132.48 138.368 124.48 142.969C124.16 143.298 123.84 143.298 123.52 143.626C125.12 142.64 126.72 141.654 128.32 140.997C129.28 140.668 129.92 140.011 130.88 139.682C134.72 137.382 137.28 132.452 137.6 126.536C137.6 123.578 139.2 116.347 150.72 115.032C159.04 114.046 167.04 107.473 170.56 101.228C174.08 94.9836 175.04 85.7809 168.96 80.8509C167.04 79.2076 164.8 78.5503 162.56 78.5503Z" fill="white"/>
<path d="M440.96 271.15H439.36C437.76 271.15 430.72 267.864 430.08 262.605C428.8 253.402 426.24 251.102 421.12 249.458C416.64 248.144 414.4 244.857 412.48 242.228C411.2 240.584 410.24 238.612 408.64 237.626C407.68 236.969 406.72 236.312 405.12 235.983C401.6 234.34 396.8 232.368 391.36 224.808C386.56 217.906 384.32 210.018 385.6 203.774C386.56 199.83 388.48 196.543 391.68 194.571C400.32 189.312 409.6 194.571 414.72 201.473C419.52 207.718 423.04 219.221 420.48 228.424C418.88 234.668 420.16 239.27 424.32 241.242C430.72 244.2 434.88 249.458 435.84 255.046C435.84 256.032 436.16 257.018 436.16 258.004C436.48 261.619 436.8 265.892 439.68 267.535C440.639 268.192 441.92 268.85 441.6 270.493L440.96 271.15ZM399.04 195.228C397.12 195.228 395.2 195.886 393.28 196.872C391.04 198.186 389.44 200.816 388.8 203.774C387.84 209.361 389.76 216.263 393.92 222.508C398.72 229.41 402.88 231.382 406.4 232.696C407.68 233.354 409.28 234.011 410.56 234.668C412.48 236.312 414.08 238.284 415.36 239.927C417.28 242.556 418.88 244.857 422.08 246.172C428.8 248.144 432 252.745 433.28 261.948C433.28 262.276 433.6 262.605 433.6 262.934C433.28 260.962 432.96 259.318 432.96 257.346C432.96 256.36 432.96 255.374 432.64 254.717C432 250.116 428.48 245.843 423.04 243.542C420.48 242.228 414.4 238.284 417.6 226.78C419.84 218.564 416.64 208.375 412.48 202.788C409.28 198.515 404.16 195.228 399.04 195.228Z" fill="white"/>
<path d="M141.12 404.259C140.48 404.259 139.84 404.259 138.88 404.259C131.2 403.602 120.64 398.672 115.84 390.127C112.64 384.539 108.16 382.567 104 384.211C97.5998 386.84 90.8798 386.84 86.3998 383.553C85.7598 382.896 84.7998 382.239 84.1598 381.581C81.2798 379.281 78.0798 376.651 74.8798 377.637C73.9198 377.966 72.3198 378.295 71.6798 376.98L71.0398 375.994L71.9998 375.008C73.2798 374.022 80.3198 370.735 84.4798 373.693C91.8398 378.952 95.3598 378.623 99.8398 375.994C103.68 373.693 107.52 374.022 111.04 374.679C113.28 375.008 115.2 375.337 117.12 374.679C118.08 374.351 119.36 374.022 120.64 373.365C124.16 371.721 128.96 369.421 138.24 370.735C146.56 371.721 153.6 375.337 157.12 380.924C159.36 384.211 160.32 388.155 159.36 391.77C157.76 400.315 149.12 404.259 141.12 404.259ZM139.2 400.973C146.24 401.63 154.56 398.672 156.48 390.784C157.12 388.155 156.48 385.197 154.56 382.567C151.36 377.966 145.28 374.679 137.6 374.022C129.28 373.036 125.12 375.008 121.92 376.651C120.64 377.309 119.04 377.966 117.76 378.295C115.2 378.952 112.96 378.623 110.72 378.295C107.52 377.966 104.64 377.637 101.76 379.281C95.6798 382.896 90.5598 382.239 82.8798 376.98C82.5598 376.651 82.2398 376.651 81.9198 376.651C83.5198 377.637 85.1198 378.623 86.3998 379.938C87.0398 380.595 87.9998 381.253 88.6398 381.581C92.1598 384.211 97.5998 384.211 103.04 381.91C105.92 380.595 112.64 378.952 118.72 389.141C123.2 395.714 132.48 400.315 139.2 400.973Z" fill="white"/>
<path d="M379.84 453.559C379.52 453.559 379.2 453.559 378.88 453.23C360.96 435.811 339.2 411.161 339.2 410.832C337.28 408.86 336.32 406.231 336 403.273C336 400.315 336.96 397.686 338.88 395.714L347.84 386.511C350.72 383.553 350.72 378.952 347.84 375.994L334.4 362.19C331.84 359.56 327.68 359.232 324.8 361.532C271.68 402.287 198.72 397.028 151.68 349.372C125.44 322.75 111.36 287.254 111.68 249.457C112.32 211.661 127.36 176.493 154.56 150.857C204.8 102.872 284.16 102.543 335.04 150.2C385.6 197.528 393.28 276.079 352.96 332.61C350.72 335.568 351.04 339.84 353.6 342.47L367.04 355.945C368.32 357.26 370.24 358.246 372.16 358.246C374.08 358.246 376 357.589 377.28 355.945L386.24 346.742C388.16 344.77 390.72 343.456 393.6 343.456C396.48 343.456 399.04 344.442 400.96 346.414C401.28 346.742 433.6 379.28 440.64 386.182C441.28 386.84 441.28 387.826 440.64 388.483C440 389.14 439.04 389.14 438.4 388.483C431.36 381.581 399.04 349.043 398.72 348.714C397.44 347.4 395.52 346.414 393.6 346.414C391.68 346.414 389.76 347.071 388.48 348.714L379.52 357.917C377.6 359.889 375.04 361.204 372.16 361.204C369.6 361.204 366.72 360.218 364.8 358.246L351.36 344.77C347.52 340.827 347.2 334.91 350.4 330.638C390.08 275.422 382.4 198.843 333.12 152.501C283.52 106.159 206.08 106.487 157.12 153.158C130.56 178.465 115.84 212.647 115.2 249.457C114.24 285.939 128 320.778 153.6 346.414C199.68 393.084 270.72 398.014 322.56 358.574C326.72 355.288 332.48 355.616 336.32 359.56L349.76 373.364C353.92 377.637 353.92 384.21 349.76 388.483L340.8 397.686C339.52 399 338.56 400.972 338.56 402.944C338.56 404.916 339.2 406.888 340.8 408.203C341.12 408.532 362.56 432.853 380.48 450.601C381.12 451.258 381.12 452.244 380.48 452.902C380.48 453.23 380.16 453.559 379.84 453.559ZM245.12 365.805C216.96 365.805 188.48 354.959 166.72 332.939C122.88 288.569 122.24 215.933 165.44 170.577C208.64 125.55 279.36 124.893 323.52 169.263C367.36 213.633 368 286.268 324.8 331.624C303.04 354.302 273.92 365.805 245.12 365.805ZM168.96 330.638C211.52 373.693 280.32 373.036 322.24 329.323C364.16 285.611 363.52 214.947 320.96 171.892C278.4 128.508 209.6 129.165 167.68 172.878C125.76 216.591 126.4 287.583 168.96 330.638Z" fill="white"/>
<path d="M411.52 396.043C411.2 396.043 410.88 396.043 410.56 395.714L389.12 375.337C388.48 374.679 388.48 373.693 389.12 373.036C389.76 372.379 390.72 372.379 391.36 373.036L412.8 393.413C413.44 394.071 413.44 395.057 412.8 395.714C412.48 396.043 412.16 396.043 411.52 396.043Z" fill="white"/>
</g>
<defs>
<linearGradient id="paint0_linear_30_212" x1="-3.02913e-08" y1="246.5" x2="480" y2="246.5" gradientUnits="userSpaceOnUse">
<stop stop-color="#A850CE"/>
<stop offset="1" stop-color="#FE8C8C"/>
</linearGradient>
<clipPath id="clip0_30_212">
<rect width="480" height="493" fill="white"/>
</clipPath>
</defs>
</svg>
