<svg width="480" height="480" viewBox="0 0 480 480" fill="none" xmlns="http://www.w3.org/2000/svg">
<g opacity="0.15" clip-path="url(#clip0_30_272)">
<path d="M240.32 -2.85816e-06C107.52 -4.44178e-06 4.44178e-06 107.52 2.85816e-06 240.32C1.27453e-06 373.12 107.52 480 240.32 480C373.12 480 480 373.12 480 240.32C480 107.52 373.12 -1.27453e-06 240.32 -2.85816e-06Z" fill="url(#paint0_linear_30_272)"/>
<path d="M288.959 39.6793C289.919 40.9593 288.639 42.2393 287.999 43.1993C285.119 46.7193 286.399 51.8393 287.679 56.3193C287.999 57.5993 288.319 58.8793 288.639 59.8393C289.919 66.5593 286.719 74.2393 280.319 80.3193C275.839 84.4793 275.839 90.5593 280.639 97.5993C287.359 107.519 287.679 122.239 284.159 131.519C280.639 141.439 271.359 151.359 259.199 148.799C254.719 147.839 250.879 144.959 248.319 140.799C246.079 136.959 244.799 132.159 244.799 126.719C244.799 122.559 245.439 118.079 247.039 113.599C250.559 102.399 255.679 97.9193 259.199 94.7193C260.479 93.4393 261.759 92.4793 262.719 91.1993C264.319 88.9593 264.959 86.7193 265.919 83.8393C267.199 79.6793 268.479 75.1993 273.279 71.9993C278.719 68.1593 281.279 63.9993 279.039 52.4793C277.759 46.7193 284.799 39.9993 286.719 39.0393C287.359 38.7193 288.639 39.0393 288.959 39.6793ZM282.239 51.8393C284.479 63.3593 282.559 69.4393 275.199 74.5593C271.359 77.1193 270.399 80.9593 269.119 84.7993C268.159 87.6793 267.519 90.5593 265.599 93.1193C264.639 94.7193 263.039 95.9993 261.759 97.2793C258.239 100.479 253.759 104.319 250.559 114.559C247.679 123.839 247.999 133.119 251.519 139.199C253.439 142.719 256.639 144.959 260.159 145.919C270.399 148.159 278.399 139.519 281.599 130.879C282.879 127.359 283.519 123.199 283.519 118.719C283.519 112.319 281.919 105.279 278.399 99.8393C270.399 87.9993 275.839 80.9593 278.399 78.3993C284.159 73.2793 286.719 66.5593 285.759 60.7993C285.439 59.8393 285.119 58.5593 285.119 57.2793C284.479 54.3993 283.519 51.1993 283.839 48.3193C282.239 49.2793 281.919 50.5593 282.239 51.8393Z" fill="white"/>
<path d="M331.84 367.04C339.2 400.64 334.4 435.84 318.08 466.24L314.24 473.6L308.8 476.48L315.52 464.96C331.52 435.2 336 400.96 328.96 368C312 291.52 236.8 243.52 160.64 260.16C101.44 273.28 57.2803 322.56 50.5603 383.04L49.6003 395.84L47.0403 386.88L47.3603 382.72C54.0803 320.96 99.2003 270.4 159.68 257.28C237.76 240 314.88 289.28 331.84 367.04Z" fill="white"/>
<path d="M157.438 353.28C156.478 349.44 156.158 345.92 156.158 342.4C156.158 319.04 172.478 297.92 196.158 292.8C223.678 286.72 250.558 304 256.638 331.52C257.598 335.36 257.918 338.88 257.918 342.4C257.918 365.76 241.598 386.88 217.918 392C190.398 398.08 163.518 380.48 157.438 353.28ZM217.278 388.8C239.038 384 254.718 364.48 254.718 342.4C254.718 338.88 254.398 335.36 253.438 332.16C247.678 306.56 222.398 290.24 196.798 296C175.038 300.8 159.358 320.32 159.358 342.4C159.358 345.92 159.678 349.44 160.638 352.64C166.078 378.24 191.678 394.56 217.278 388.8Z" fill="white"/>
<path d="M272.002 195.199L253.122 214.079L272.002 232.959C272.642 233.599 272.642 234.559 272.002 235.199C271.362 235.839 270.402 235.839 269.762 235.199L250.882 216.319L232.642 234.559C232.001 235.199 231.042 235.199 230.402 234.559C230.082 234.239 230.082 233.919 230.082 233.279C230.082 232.639 230.082 232.319 230.402 231.999L248.642 213.759L230.402 195.519C230.082 195.199 230.082 194.879 230.082 194.239C230.082 193.599 230.082 193.279 230.402 192.959C231.042 192.319 232.001 192.319 232.642 192.959L250.882 211.199L269.762 192.319C270.402 191.679 271.362 191.679 272.002 192.319C272.642 192.959 272.642 194.559 272.002 195.199Z" fill="white"/>
</g>
<defs>
<linearGradient id="paint0_linear_30_272" x1="240" y1="480" x2="240" y2="-2.83168e-06" gradientUnits="userSpaceOnUse">
<stop stop-color="#A850CE"/>
<stop offset="1" stop-color="#FE8C8C"/>
</linearGradient>
<clipPath id="clip0_30_272">
<rect width="480" height="480" fill="white" transform="matrix(1.19249e-08 -1 -1 -1.19249e-08 480 480)"/>
</clipPath>
</defs>
</svg>
